<?xml version="1.0" standalone="no"?>
<!DOCTYPE svg PUBLIC "-//W3C//DTD SVG 20010904//EN"
 "http://www.w3.org/TR/2001/REC-SVG-20010904/DTD/svg10.dtd">
<svg version="1.0" xmlns="http://www.w3.org/2000/svg"
 width="640.000000pt" height="640.000000pt" viewBox="0 0 640.000000 640.000000"
 preserveAspectRatio="xMidYMid meet">
<metadata>
Created by potrace 1.11, written by Peter Selinger 2001-2013
</metadata>
<g transform="translate(0.000000,640.000000) scale(0.100000,-0.100000)"
fill="#000000" stroke="none">
<path d="M2041 5519 c-401 -49 -724 -325 -836 -713 -69 -242 -44 -507 70 -730
54 -107 107 -178 200 -268 138 -135 287 -212 505 -258 244 -53 513 1 728 144
368 244 528 658 422 1091 -54 220 -225 456 -426 586 -73 47 -93 57 -188 95
-118 47 -332 71 -475 53z"/>
<path d="M1167 3720 c-321 -54 -569 -280 -654 -596 l-27 -99 -5 -795 c-3 -437
-5 -797 -3 -799 3 -5 1663 -19 2385 -20 l417 -1 0 665 c0 716 -2 692 52 742
50 47 84 53 294 53 l197 0 -6 88 c-11 171 -79 342 -186 469 -144 172 -338 270
-569 288 l-92 8 -67 -56 c-142 -114 -306 -200 -467 -242 -55 -14 -102 -27
-104 -29 -2 -3 30 -24 71 -48 l75 -44 -148 -166 -149 -166 101 -463 100 -464
-117 -240 -118 -240 -109 225 c-60 123 -112 236 -114 250 -3 14 42 229 100
479 l105 454 -131 151 c-72 83 -138 159 -145 168 -13 15 -7 21 63 61 70 41 75
46 56 56 -12 6 -25 10 -29 9 -16 -3 -89 15 -158 40 -137 48 -257 119 -372 219
l-61 53 -69 -1 c-37 -1 -90 -5 -116 -9z"/>
<path d="M4295 3144 c-57 -20 -114 -70 -136 -118 -14 -30 -19 -65 -19 -133 l0
-93 -347 0 c-311 0 -352 -2 -383 -18 -60 -30 -61 -36 -58 -603 3 -491 4 -508
23 -529 46 -51 40 -50 575 -50 l500 0 0 114 c0 95 3 115 16 120 31 12 349 7
362 -6 8 -8 12 -49 12 -120 l0 -108 493 0 c491 0 493 0 537 23 25 12 51 33 57
47 16 32 18 995 3 1051 -21 76 -8 74 -416 77 l-364 3 0 91 c0 106 -19 157 -76
207 -62 55 -105 61 -438 60 -234 0 -310 -4 -341 -15z m649 -176 c11 -15 16
-46 16 -95 l0 -73 -316 0 -316 0 3 85 c3 62 8 88 19 95 9 6 137 10 297 10 280
0 282 0 297 -22z"/>
<path d="M4506 1784 c-12 -31 -7 -339 6 -352 17 -17 249 -17 266 0 13 13 18
321 6 352 -5 14 -27 16 -139 16 -112 0 -134 -2 -139 -16z"/>
<path d="M3500 1244 l0 -306 39 -39 39 -39 1056 0 c951 0 1060 2 1089 16 68
34 67 26 67 367 l0 307 -475 0 -475 0 0 -66 c0 -108 7 -104 -193 -104 -121 0
-177 4 -185 12 -7 7 -12 42 -12 85 l0 73 -475 0 -475 0 0 -306z"/>
</g>
</svg>
